<?xml version="1.0" encoding="UTF-8"?>
<svg width="200" height="200" viewBox="0 0 200 200" fill="none" xmlns="http://www.w3.org/2000/svg">
  <rect width="200" height="200" rx="32" fill="#18181B"/>
  <path d="M100 50C77.909 50 60 67.909 60 90V110C60 132.091 77.909 150 100 150C122.091 150 140 132.091 140 110V90C140 67.909 122.091 50 100 50ZM120 110C120 121.046 111.046 130 100 130C88.954 130 80 121.046 80 110V90C80 78.954 88.954 70 100 70C111.046 70 120 78.954 120 90V110Z" fill="#28CF8D"/>
  <path d="M100 85C94.477 85 90 89.477 90 95V105C90 110.523 94.477 115 100 115C105.523 115 110 110.523 110 105V95C110 89.477 105.523 85 100 85Z" fill="#28CF8D"/>
</svg>
